<?xml version="1.0" encoding="utf-8"?>
<!-- Generator: Adobe Illustrator 21.0.0, SVG Export Plug-In . SVG Version: 6.00 Build 0)  -->
<svg version="1.1" id="Layer_1" xmlns="http://www.w3.org/2000/svg" xmlns:xlink="http://www.w3.org/1999/xlink" x="0px" y="0px"
	 width="500px" height="500px" viewBox="0 0 500 500" style="enable-background:new 0 0 500 500;" xml:space="preserve">
<style type="text/css">
	.st0{fill:#92E3A9;}
	.st1{opacity:0.7;fill:#FFFFFF;enable-background:new    ;}
	.st2{fill:none;stroke:#263238;stroke-miterlimit:10;}
	.st3{fill:#CCCCCC;}
	.st4{fill:#FFFFFF;stroke:#263238;stroke-linecap:round;stroke-linejoin:round;}
	.st5{fill:#263238;stroke:#263238;stroke-linecap:round;stroke-linejoin:round;}
	.st6{fill:#92E3A9;stroke:#263238;stroke-miterlimit:10;}
	.st7{fill:#92E3A9;stroke:#263238;stroke-linecap:round;stroke-linejoin:round;}
	.st8{fill:#FFFFFF;}
	.st9{fill:#CCCCCC;stroke:#263238;stroke-linecap:round;stroke-linejoin:round;}
	.st10{fill:none;stroke:#263238;stroke-linecap:round;stroke-linejoin:round;}
	.st11{fill:#263238;}
	.st12{fill:none;stroke:#7D7D7D;stroke-linecap:round;stroke-linejoin:round;}
</style>
<g id="freepik--background-simple--inject-31">
	<path class="st0" d="M132.4,86.8c0,0-61.8,50.9-84.8,113.8S42.3,334,95.4,377.9s132.1,19.6,206.4,38.7s147.2-3.8,164.1-81.7
		s-36.6-94.1-62.1-174.5S280.2-24.7,132.4,86.8z"/>
	<path class="st1" d="M132.4,86.8c0,0-61.8,50.9-84.8,113.8S42.3,334,95.4,377.9s132.1,19.6,206.4,38.7s147.2-3.8,164.1-81.7
		s-36.6-94.1-62.1-174.5S280.2-24.7,132.4,86.8z"/>
</g>
<g id="freepik--Floor--inject-31">
	<line class="st2" x1="49.9" y1="425.5" x2="462" y2="425.5"/>
	<line class="st2" x1="32.4" y1="425.5" x2="38.8" y2="425.5"/>
</g>
<g id="freepik--Icons--inject-31">
	<path class="st2" d="M175,99.8h51.6c0.9,0,1.7,0.7,1.7,1.7v31.3c0,0.9-0.7,1.7-1.7,1.7H175c-0.9,0-1.7-0.7-1.7-1.7v-31.3
		C173.3,100.6,174.1,99.8,175,99.8z"/>
	<rect x="173.3" y="120.2" class="st2" width="55" height="8"/>
	<circle class="st2" cx="219.6" cy="106.5" r="3.8"/>
	<circle class="st2" cx="213.9" cy="106.5" r="3.8"/>
	<line class="st2" x1="178.2" y1="105.3" x2="193.3" y2="105.3"/>
	<path class="st2" d="M58.4,254H110c0.9,0,1.7,0.7,1.7,1.7v31.3c0,0.9-0.7,1.7-1.7,1.7H58.4c-0.9,0-1.7-0.7-1.7-1.7v-31.3
		C56.7,254.7,57.4,254,58.4,254z"/>
	<rect x="56.7" y="274.4" class="st2" width="55" height="8"/>
	<path class="st2" d="M106.8,260.6c0,2.1-1.7,3.8-3.8,3.8s-3.8-1.7-3.8-3.8c0-2.1,1.7-3.8,3.8-3.8c0,0,0,0,0,0
		C105.1,256.9,106.8,258.6,106.8,260.6z"/>
	<circle class="st2" cx="97.3" cy="260.6" r="3.8"/>
	<line class="st2" x1="61.6" y1="259.5" x2="76.6" y2="259.5"/>
	<rect x="366.6" y="66.6" class="st2" width="34.1" height="34.2"/>
	<polygon class="st2" points="394.2,81 385.5,81 385.5,72.3 381.8,72.3 381.8,81 373.1,81 373.1,84.7 381.8,84.7 381.8,93.4 
		385.5,93.4 385.5,84.7 394.2,84.7 	"/>
	<rect x="400.6" y="66.6" class="st2" width="34.1" height="34.2"/>
	<rect x="408.6" y="81" class="st2" width="18.2" height="3.2"/>
	<rect x="366.6" y="100.7" class="st2" width="34.1" height="34.2"/>
	<polygon class="st2" points="389.8,108.2 383.6,114.3 377.5,108.2 374.9,110.8 381,116.9 374.9,123.1 377.5,125.7 383.6,119.6 
		389.8,125.7 392.4,123.1 386.3,116.9 392.4,110.8 	"/>
	<rect x="400.6" y="100.7" class="st2" width="34.1" height="34.2"/>
	<rect x="408.6" y="115.1" class="st2" width="18.2" height="3.2"/>
	<path class="st2" d="M417.7,112.2c1.3,0,2.3-1,2.3-2.3c0-1.3-1-2.3-2.3-2.3c-1.3,0-2.3,1-2.3,2.3
		C415.4,111.2,416.4,112.2,417.7,112.2L417.7,112.2z"/>
	<circle class="st2" cx="417.7" cy="123.8" r="2.3"/>
	<rect x="36.1" y="366" class="st2" width="21.6" height="21.6"/>
	<polygon class="st2" points="53.5,375.1 48,375.1 48,369.6 45.7,369.6 45.7,375.1 40.2,375.1 40.2,377.5 45.7,377.5 45.7,383 
		48,383 48,377.5 53.5,377.5 	"/>
	<rect x="57.6" y="366" class="st2" width="21.6" height="21.6"/>
	<rect x="62.6" y="375.1" class="st2" width="11.5" height="2"/>
	<rect x="36.1" y="387.5" class="st2" width="21.6" height="21.6"/>
	<polygon class="st2" points="50.8,392.3 46.9,396.2 43,392.3 41.3,393.9 45.2,397.8 41.3,401.7 43,403.4 46.9,399.5 50.8,403.4 
		52.4,401.7 48.5,397.8 52.4,393.9 	"/>
	<rect x="57.6" y="387.5" class="st2" width="21.6" height="21.6"/>
	<rect x="62.6" y="396.6" class="st2" width="11.5" height="2"/>
	<circle class="st2" cx="68.4" cy="393.4" r="1.4"/>
	<path class="st2" d="M68.4,400.7c-0.8,0-1.5,0.6-1.5,1.5c0,0.8,0.6,1.4,1.4,1.4s1.4-0.6,1.5-1.4S69.2,400.7,68.4,400.7L68.4,400.7z
		"/>
	<path class="st2" d="M297.5,109.2c-0.1,0-0.2,0.1-0.2,0.2v1.5c0,0.3-0.1,0.5-0.4,0.6c-0.1,0-0.1,0-0.2,0h-2c-0.3,0-0.5-0.1-0.6-0.4
		c0-0.1,0-0.1,0-0.2l0.1-1.5c0-0.1-0.1-0.2-0.2-0.2c-3.8-0.5-5.9-2.7-5.9-5.9v-1.4c0-0.3,0.2-0.5,0.4-0.6c0,0,0.1,0,0.1,0h3.4
		c0.4,0,0.6,0.2,0.6,0.4v0.5c-0.1,1.7,1.2,3.1,2.8,3.1c0.2,0,0.3,0,0.5,0c2.1,0,3-1.3,3-2.6c0-2.3-4.3-2.7-7.5-4.7
		c-2-1.3-3.5-2.9-3.5-5.7c0-3.5,2.1-5.9,5.9-6.5c0.1,0,0.2-0.1,0.2-0.2l-0.1-1.8c0-0.3,0.1-0.5,0.4-0.6c0.1,0,0.1,0,0.2,0h1.9
		c0.3,0,0.5,0.2,0.6,0.4c0,0,0,0.1,0,0.1v1.7c0,0.1,0.1,0.2,0.2,0.2c4,0.4,6.2,2.8,6.2,6.2v1.1c0,0.3-0.2,0.5-0.5,0.6
		c0,0-0.1,0-0.1,0h-3.5c-0.4,0-0.6-0.1-0.6-0.3V93c0.1-1.7-1.1-3.2-2.8-3.3c-0.2,0-0.3,0-0.5,0c-1.8,0-3,1-3,2.4
		c0,2.1,3,2.5,6.1,3.8c3.4,1.5,4.9,3.6,4.9,6.5C303.7,106.1,301.5,108.7,297.5,109.2z"/>
	<circle class="st2" cx="295.7" cy="97.5" r="18.7"/>
	<path class="st2" d="M147.3,74.3c-0.1,0-0.1,0.1-0.1,0.2v1c0,0.2-0.1,0.3-0.3,0.4c0,0-0.1,0-0.1,0h-1.3c-0.2,0-0.3-0.1-0.4-0.3
		c0,0,0-0.1,0-0.1l0.1-1c0-0.1-0.1-0.1-0.1-0.2c-2.5-0.3-4-1.8-4-4v-0.9c0-0.2,0.1-0.4,0.3-0.4c0,0,0,0,0.1,0h2.3
		c0.3,0,0.4,0.1,0.4,0.3v0.3c-0.1,1.1,0.8,2,1.9,2.1c0.1,0,0.2,0,0.3,0c1,0.1,1.9-0.5,2-1.5c0-0.1,0-0.2,0-0.2c0-1.6-2.9-1.8-5-3.2
		c-1.4-0.7-2.3-2.2-2.2-3.8c-0.1-2.3,1.7-4.2,4-4.3c0.1,0,0.1-0.1,0.1-0.2l-0.1-1.2c0-0.2,0.1-0.3,0.3-0.4c0,0,0.1,0,0.1,0h1.3
		c0.2,0,0.4,0.1,0.4,0.3c0,0,0,0,0,0.1v1.2c0,0.1,0.1,0.1,0.1,0.2c2.6,0.3,4.1,1.9,4.1,4.2v0.7c0.1,0.2,0,0.4-0.2,0.5
		c-0.1,0-0.2,0-0.3,0h-2.3c-0.3,0-0.4-0.1-0.4-0.2v-0.2c0.1-1.1-0.7-2.1-1.9-2.2c-0.1,0-0.2,0-0.3,0c-1.2,0-2,0.6-2,1.6
		c0,1.4,2,1.6,4.1,2.6c2.3,1,3.3,2.4,3.3,4.4C151.5,72.3,150,74,147.3,74.3z"/>
	
		<ellipse transform="matrix(0.7071 -0.7071 0.7071 0.7071 -4.2642 122.8047)" class="st2" cx="146.1" cy="66.5" rx="12.6" ry="12.6"/>
	<path class="st2" d="M50.2,200.1c-0.1,0-0.1,0.1-0.1,0.1v1c0,0.3-0.1,0.4-0.4,0.4h-1.3c-0.2,0-0.4-0.1-0.4-0.4v-1
		c0-0.1-0.1-0.1-0.1-0.2c-2.5-0.3-4-1.8-4-3.9v-1c0-0.2,0.1-0.3,0.3-0.4c0,0,0.1,0,0.1,0h2.3c0.2,0,0.4,0.1,0.4,0.3v0.3
		c-0.1,1.1,0.8,2,1.9,2.1c0.1,0,0.2,0,0.3,0c1,0.1,1.9-0.5,2-1.5c0-0.1,0-0.2,0-0.2c0-1.6-2.9-1.8-5-3.2c-2.1-1.1-2.9-3.7-1.8-5.8
		c0.7-1.3,2-2.2,3.5-2.3c0.1,0,0.1-0.1,0.1-0.2V183c0-0.2,0.1-0.3,0.3-0.4c0,0,0.1,0,0.1,0h1.3c0.2,0,0.4,0.1,0.4,0.3c0,0,0,0,0,0.1
		v1.2c0,0.1,0.1,0.1,0.1,0.2c2.6,0.3,4.2,1.9,4.2,4.2v0.7c0,0.2-0.1,0.4-0.3,0.4c0,0,0,0-0.1,0h-2.3c-0.2,0-0.4-0.1-0.4-0.2v-0.2
		c0.1-1.1-0.8-2.1-1.9-2.2c-0.1,0-0.2,0-0.3,0c-1.2,0-2,0.6-2,1.6c0,1.4,2,1.7,4.1,2.6c2.3,1,3.3,2.4,3.3,4.4
		C54.4,198,52.9,199.7,50.2,200.1z"/>
	
		<ellipse transform="matrix(0.7071 -0.7071 0.7071 0.7071 -121.6077 90.9358)" class="st2" cx="49" cy="192.3" rx="12.5" ry="12.6"/>
	<path class="st2" d="M463.2,371.8c-0.1,0-0.1,0.1-0.1,0.1v1c0,0.3-0.1,0.4-0.4,0.4h-1.3c-0.2,0-0.4-0.1-0.4-0.4v-1
		c0-0.1-0.1-0.1-0.1-0.2c-2.5-0.3-4-1.8-4-4v-1c0-0.2,0.1-0.3,0.3-0.4c0,0,0.1,0,0.1,0h2.3c0.2,0,0.4,0.1,0.4,0.3v0.3
		c-0.1,1.1,0.8,2,1.9,2.1c0.1,0,0.2,0,0.3,0c1,0.1,1.9-0.5,2-1.5c0-0.1,0-0.2,0-0.2c0-1.6-2.9-1.8-5-3.2c-2.1-1.1-2.9-3.7-1.8-5.8
		c0.7-1.3,2-2.2,3.5-2.3c0.1,0,0.1-0.1,0.1-0.2v-1.2c0-0.2,0.1-0.3,0.3-0.4c0,0,0.1,0,0.1,0h1.3c0.2,0,0.4,0.1,0.4,0.3
		c0,0,0,0,0,0.1v1.2c0,0.1,0.1,0.1,0.1,0.1c2.6,0.3,4.1,1.9,4.1,4.2v0.7c0,0.2-0.1,0.4-0.3,0.4c0,0-0.1,0-0.1,0h-2.3
		c-0.2,0-0.4-0.1-0.4-0.2V361c0.1-1.1-0.7-2.1-1.9-2.2c-0.1,0-0.2,0-0.3,0c-1.2,0-2,0.6-2,1.6c0,1.4,2,1.7,4.1,2.6
		c2.3,1,3.3,2.4,3.3,4.4C467.4,369.7,465.9,371.5,463.2,371.8z"/>
	<circle class="st2" cx="462" cy="364" r="12.5"/>
</g>
<g id="freepik--Device--inject-31">
	<path class="st3" d="M421.9,448.5c0,3.3-76.6,6-171,6s-171-2.7-171-6s76.6-6,171.1-6S421.9,445.2,421.9,448.5z"/>
	<path class="st4" d="M238.5,394.2c0,0,8.3,35.8,4.7,41.6c-4.7,7.7-55.2,12.3-55.2,12.3h111.2c0,0,13.9-3.9,9.7-15.1
		c-3.2-8.7-18.8-38.8-18.8-38.8L238.5,394.2z"/>
	<path class="st4" d="M236.1,394.2c0,0,8.9,36.1,4.7,41.6s-52.7,9.8-52.7,9.8h111.7c0,0,9.4-3.8,6.8-12.6s-18.8-38.8-18.8-38.8
		H236.1z"/>
	<path class="st5" d="M287.7,394.2h-51.7c0,0,5.3,21.4,5.8,33.7h62.8C299.5,416,287.7,394.2,287.7,394.2z"/>
	<rect x="188.1" y="445.9" class="st4" width="111.2" height="2.3"/>
	<path class="st4" d="M106.5,146.2h318.4c4.7,0,8.5,3.8,8.5,8.5v234.6c0,4.7-3.8,8.5-8.5,8.5H106.5c-4.7,0-8.5-3.8-8.5-8.5V154.7
		C98,150,101.8,146.2,106.5,146.2z"/>
	<path class="st5" d="M98.6,146.2H417c4.7,0,8.5,3.8,8.5,8.5v234.6c0,4.7-3.8,8.5-8.5,8.5H98.6c-4.7,0-8.5-3.8-8.5-8.5V154.7
		C90.1,150,93.9,146.2,98.6,146.2z"/>
	<path class="st4" d="M90.1,358.6h335.4l0,0v30.6c0,4.7-3.8,8.5-8.5,8.5c0,0,0,0,0,0H98.6c-4.7,0-8.5-3.8-8.5-8.5l0,0V358.6
		L90.1,358.6z"/>
	<rect x="105.1" y="163.3" class="st4" width="301.6" height="177.7"/>
	<rect x="122.1" y="264.1" class="st0" width="256.1" height="11.2"/>
	<rect x="122.1" y="285.4" class="st0" width="256.1" height="11.2"/>
	<line class="st2" x1="332.2" y1="203.2" x2="377.3" y2="203.2"/>
	<line class="st2" x1="332.2" y1="209.8" x2="377.3" y2="209.8"/>
	<line class="st2" x1="122.1" y1="325.5" x2="167.1" y2="325.5"/>
	<line class="st2" x1="122.1" y1="331.7" x2="167.1" y2="331.7"/>
	<line class="st2" x1="332.2" y1="216.5" x2="377.3" y2="216.5"/>
	<rect x="270.3" y="223.6" class="st0" width="108" height="11.9"/>
	<rect x="122.1" y="211.7" class="st0" width="57" height="6"/>
	<rect x="122.1" y="196.4" class="st2" width="57" height="21.2"/>
	<rect x="122.1" y="202.4" class="st2" width="57" height="9.3"/>
	<line class="st2" x1="130.7" y1="196.6" x2="130.7" y2="217.4"/>
	<rect x="122.1" y="243.5" class="st2" width="256.1" height="71.8"/>
	<rect x="122.1" y="243.5" class="st6" width="256.1" height="11.2"/>
	<line class="st2" x1="302.9" y1="243.8" x2="302.9" y2="315.2"/>
	<line class="st2" x1="330.7" y1="243.8" x2="330.7" y2="315.2"/>
	<rect x="294.3" y="319.4" class="st0" width="53.7" height="16.6"/>
	<rect x="107" y="161.8" class="st7" width="301.6" height="8.2"/>
	<path class="st5" d="M264,378.2c0-3.4-2.8-6.2-6.2-6.2s-6.2,2.8-6.2,6.2s2.8,6.2,6.2,6.2c0,0,0,0,0,0
		C261.2,384.4,264,381.6,264,378.2z"/>
	<g>
		<path d="M328.4,185.6c0.1,0.1,0.1,0.3,0.2,0.4c0.1,0.2,0.2,0.4,0.2,0.6c0.1,0.2,0.2,0.4,0.2,0.6c0.1,0.2,0.1,0.5,0.2,0.7
			c0,0.2,0.1,0.5,0.1,0.7c0,0.4-0.1,0.7-0.2,1c-0.1,0.3-0.3,0.6-0.5,0.8c-0.2,0.2-0.5,0.4-0.8,0.6c-0.3,0.1-0.7,0.2-1.1,0.2
			c-0.3,0-0.6-0.1-0.8-0.2c-0.2-0.1-0.4-0.3-0.5-0.5c-0.1,0.1-0.2,0.2-0.3,0.3c-0.1,0.1-0.2,0.2-0.3,0.2c-0.1,0.1-0.3,0.1-0.4,0.1
			c-0.2,0-0.4,0-0.6,0c-0.2,0-0.3,0-0.4,0c-0.1,0-0.3-0.1-0.4-0.1c0,0.4-0.1,0.8-0.2,1.2c-0.1,0.4-0.3,0.7-0.5,1
			c-0.2,0.3-0.5,0.5-0.8,0.7c-0.3,0.2-0.6,0.4-1,0.5c-0.3,0.1-0.7,0.2-1.1,0.3c-0.4,0.1-0.8,0.1-1.1,0.1c-0.6,0-1.1-0.1-1.6-0.3
			c-0.5-0.2-0.9-0.5-1.3-0.8c-0.4-0.3-0.6-0.8-0.8-1.2c-0.2-0.5-0.3-1-0.3-1.6c0-0.3,0.1-0.7,0.1-1c0.1-0.4,0.2-0.7,0.3-1
			c0.1-0.3,0.3-0.7,0.4-1c0.2-0.3,0.3-0.6,0.5-0.8l1.2,0.9c-0.1,0.2-0.3,0.5-0.4,0.7c-0.1,0.2-0.2,0.5-0.3,0.8
			c-0.1,0.3-0.2,0.5-0.2,0.8c-0.1,0.3-0.1,0.5-0.1,0.7c0,0.3,0,0.6,0.2,0.8c0.1,0.3,0.3,0.5,0.5,0.7c0.2,0.2,0.5,0.3,0.8,0.4
			c0.3,0.1,0.6,0.2,1,0.2c0.4,0,0.7,0,1.1-0.1c0.3-0.1,0.6-0.2,0.9-0.3c0.3-0.1,0.5-0.3,0.6-0.5s0.3-0.4,0.4-0.6l0,0
			c0.1-0.3,0.1-0.6,0.1-1c0-0.3,0-0.5-0.1-0.8c-0.1-0.3-0.2-0.5-0.3-0.8c-0.1-0.3-0.2-0.5-0.4-0.8c-0.1-0.3-0.3-0.5-0.4-0.8l1.5-0.9
			c0.1,0.2,0.2,0.4,0.3,0.7c0.1,0.2,0.2,0.4,0.3,0.6s0.2,0.4,0.3,0.6c0.1,0.2,0.2,0.3,0.3,0.5c0.1,0.1,0.2,0.2,0.4,0.3
			c0.1,0.1,0.3,0.1,0.4,0.1c0.2,0,0.3-0.1,0.4-0.2c0.1-0.1,0.2-0.2,0.2-0.3c0.1-0.1,0.1-0.3,0.1-0.4c0-0.2,0-0.3,0-0.5
			c0-0.2,0-0.3,0-0.5c0-0.2,0-0.3,0-0.5l1.6-0.2c0,0.1,0,0.3,0.1,0.4c0,0.2,0,0.3,0.1,0.5c0,0.2,0.1,0.4,0.1,0.5
			c0,0.2,0.1,0.4,0.2,0.5c0.1,0.2,0.1,0.3,0.2,0.4s0.2,0.2,0.4,0.2c0.1,0,0.2,0,0.3-0.1c0.1,0,0.2-0.1,0.3-0.2s0.1-0.2,0.2-0.3
			c0-0.1,0.1-0.3,0.1-0.4c0-0.1,0-0.3-0.1-0.5c-0.1-0.2-0.1-0.4-0.2-0.6c-0.1-0.2-0.2-0.4-0.3-0.6c-0.1-0.2-0.2-0.5-0.4-0.7l1.4-0.8
			C328.3,185.4,328.3,185.5,328.4,185.6z M324.9,184.6l-1.1,1.1l-1.1-1.1l1.1-1.1L324.9,184.6l1.1-1.1l1.1,1.1l-1.1,1.1L324.9,184.6
			z M325.9,182.9l-1,1l-1-1l1-1L325.9,182.9z"/>
		<path d="M329.6,193.6c0.5-0.1,1-0.2,1.4-0.4c0.4-0.2,0.8-0.3,1.1-0.5c0.3-0.2,0.6-0.4,0.8-0.6c0.2-0.2,0.4-0.4,0.5-0.7
			c-0.2,0-0.3,0-0.5,0c-0.2,0-0.3,0-0.4,0c-0.4,0-0.8-0.1-1.2-0.3c-0.4-0.2-0.6-0.4-0.9-0.6c-0.2-0.2-0.3-0.4-0.3-0.7
			c-0.1-0.2-0.1-0.5-0.1-0.7c0-0.2,0-0.4,0.1-0.6c0-0.2,0.1-0.4,0.2-0.6c0.1-0.2,0.1-0.4,0.2-0.5c0.1-0.2,0.2-0.3,0.3-0.5
			c0.5-0.6,1-0.9,1.6-0.9c0.6,0,1.2,0.3,1.7,0.8c0.2,0.2,0.3,0.4,0.5,0.7c0.1,0.3,0.3,0.5,0.4,0.8c0.1,0.3,0.2,0.6,0.2,0.9
			c0.1,0.3,0.1,0.6,0.1,0.9c0,0.1,0,0.2,0,0.3c0,0.1,0,0.2,0,0.3c0,0.4-0.1,0.8-0.3,1.2c-0.2,0.4-0.3,0.7-0.6,1.1
			c-0.2,0.3-0.5,0.6-0.8,0.9c-0.3,0.3-0.7,0.5-1,0.7c-0.4,0.2-0.8,0.4-1.2,0.5c-0.4,0.1-0.8,0.2-1.3,0.3L329.6,193.6z M332.4,187.7
			c-0.1,0-0.2,0-0.3,0.1c-0.1,0.1-0.2,0.2-0.3,0.3s-0.2,0.2-0.2,0.4c-0.1,0.1-0.1,0.3-0.1,0.4c0,0.1,0,0.2,0.1,0.3
			c0.1,0.1,0.2,0.2,0.3,0.2c0.1,0.1,0.2,0.1,0.4,0.1c0.1,0,0.3,0,0.4,0.1h0c0.1,0,0.2,0,0.3,0c0.1,0,0.2,0,0.4,0c0,0,0.1,0,0.1,0
			c0,0,0,0,0.1,0c0,0,0,0,0,0c0,0,0,0,0.1,0c-0.1-0.2-0.1-0.5-0.2-0.7c-0.1-0.2-0.2-0.4-0.3-0.6c-0.1-0.2-0.2-0.3-0.3-0.4
			C332.7,187.8,332.5,187.7,332.4,187.7z"/>
		<path d="M340,191.3c-0.1,0-0.2,0-0.3,0c-0.2,0-0.3-0.1-0.5-0.1c-0.1,0.5-0.2,0.9-0.5,1.3c-0.2,0.4-0.5,0.8-0.8,1.2
			c-0.3,0.4-0.7,0.7-1.1,1c-0.4,0.3-0.9,0.6-1.4,0.8l-1-1.4c0.3-0.1,0.5-0.3,0.8-0.4c0.3-0.2,0.5-0.3,0.8-0.5
			c0.2-0.2,0.5-0.4,0.7-0.6c0.2-0.2,0.4-0.4,0.6-0.6c0.2-0.2,0.3-0.4,0.4-0.6c0.1-0.2,0.1-0.4,0.1-0.7c0,0,0,0,0-0.1c0,0,0,0,0-0.1
			s0,0,0-0.1c0,0,0,0,0,0v0c0-0.2-0.1-0.4-0.1-0.6c0-0.2-0.1-0.4-0.2-0.6c-0.1-0.2-0.2-0.4-0.3-0.6c-0.1-0.2-0.2-0.5-0.3-0.7
			l1.6-0.7c0.1,0.4,0.3,0.8,0.4,1.1c0.1,0.3,0.3,0.5,0.4,0.7c0.1,0.2,0.3,0.3,0.4,0.4c0.1,0.1,0.3,0.1,0.4,0.1h0
			c0.1,0,0.2,0,0.3,0.1c0.1,0,0.2,0.1,0.3,0.2c0.1,0.1,0.1,0.2,0.2,0.3c0,0.1,0.1,0.2,0.1,0.3c0,0.1,0,0.2-0.1,0.3
			c0,0.1-0.1,0.2-0.2,0.3c-0.1,0.1-0.2,0.1-0.3,0.2C340.3,191.3,340.1,191.3,340,191.3z"/>
		<path d="M339.1,190.4c0-0.1,0-0.2,0.1-0.3c0-0.1,0.1-0.2,0.2-0.3c0.1-0.1,0.2-0.1,0.3-0.2c0.1,0,0.2-0.1,0.4-0.1
			c0.1,0,0.3,0,0.5,0c0.2,0,0.4,0,0.7,0c0.2,0,0.5,0,0.7-0.1c0.2,0,0.5-0.1,0.7-0.1c0.2,0,0.4-0.1,0.6-0.1c0.2-0.1,0.3-0.1,0.4-0.2
			c-0.4,0-0.7,0.1-1,0c-0.3,0-0.6,0-0.9-0.1c-0.3-0.1-0.5-0.1-0.6-0.2s-0.3-0.2-0.4-0.3v0c-0.1-0.1-0.2-0.3-0.3-0.5
			c-0.1-0.2-0.1-0.5-0.1-0.8c0-0.2,0-0.3,0-0.5c0.1-0.6,0.3-1.2,0.7-1.6l0,0c0.2-0.3,0.4-0.5,0.7-0.6s0.5-0.2,0.8-0.2
			c0.3,0,0.6,0.1,0.8,0.2c0.3,0.1,0.5,0.3,0.8,0.6c0.2,0.2,0.3,0.4,0.4,0.6c0.1,0.2,0.2,0.5,0.3,0.7c0.1,0.3,0.2,0.5,0.2,0.8
			s0.1,0.6,0.1,0.9c0,0.1,0,0.2,0,0.3c0,0.1,0,0.2,0,0.2c0,0.4-0.1,0.7-0.3,1s-0.3,0.5-0.6,0.7c-0.2,0.2-0.5,0.4-0.8,0.5
			c-0.3,0.1-0.6,0.2-1,0.3c-0.4,0.1-0.7,0.1-1.1,0.1c-0.4,0-0.8,0-1.2,0H340c-0.1,0-0.2,0-0.3-0.1c-0.1,0-0.2-0.1-0.3-0.2
			c-0.1-0.1-0.1-0.2-0.2-0.3C339.1,190.7,339.1,190.6,339.1,190.4z M342.2,183.6l-1.2-1.2l1.2-1.2l1.2,1.2L342.2,183.6z
			 M342.4,186.1c-0.1,0-0.2,0-0.3,0.1c-0.1,0.1-0.2,0.1-0.2,0.2c-0.1,0.1-0.1,0.2-0.2,0.3c0,0.1-0.1,0.2-0.1,0.4
			c0,0.1,0,0.2,0.1,0.3c0,0,0.1,0.1,0.2,0.1s0.2,0.1,0.3,0.1c0.1,0,0.2,0,0.4,0.1c0.1,0,0.2,0,0.4,0c0.1,0,0.2,0,0.3,0
			c0.1,0,0.2,0,0.2,0c0-0.2-0.1-0.3-0.1-0.5c-0.1-0.2-0.1-0.3-0.2-0.5s-0.2-0.3-0.3-0.4C342.6,186.2,342.5,186.1,342.4,186.1z"/>
		<path d="M352,187.8c0.1,0.2,0.1,0.4,0.2,0.6c0,0.2,0.1,0.3,0.1,0.5c0,0.2,0.1,0.4,0.1,0.5c0,0.2,0.1,0.4,0.1,0.5
			c0,0.2,0,0.3,0,0.5c0,0.4,0,0.7-0.1,1s-0.2,0.7-0.4,1c-0.2,0.3-0.4,0.6-0.6,0.9c-0.2,0.3-0.5,0.6-0.8,0.8s-0.6,0.5-0.9,0.7
			c-0.3,0.2-0.7,0.4-1,0.6l-1-1.4c0.3-0.1,0.5-0.3,0.8-0.5c0.3-0.2,0.5-0.4,0.8-0.5c0.3-0.2,0.5-0.4,0.7-0.6
			c0.2-0.2,0.4-0.4,0.6-0.7c0.2-0.2,0.3-0.4,0.4-0.7c0.1-0.2,0.1-0.4,0.1-0.7c0-0.2,0-0.3-0.1-0.5c0-0.2-0.1-0.4-0.2-0.6
			c-0.1-0.2-0.2-0.4-0.3-0.7c-0.1-0.2-0.2-0.5-0.3-0.8l1.6-0.7C351.9,187.4,352,187.6,352,187.8z"/>
		<path d="M352.8,193.6c0.5-0.1,1-0.2,1.4-0.4c0.4-0.2,0.8-0.3,1.1-0.5c0.3-0.2,0.6-0.4,0.8-0.6c0.2-0.2,0.4-0.4,0.5-0.7
			c-0.2,0-0.3,0-0.5,0c-0.2,0-0.3,0-0.4,0c-0.4,0-0.8-0.1-1.2-0.3c-0.4-0.2-0.6-0.4-0.9-0.6c-0.2-0.2-0.3-0.4-0.3-0.7
			c-0.1-0.2-0.1-0.5-0.1-0.7c0-0.2,0-0.4,0.1-0.6c0-0.2,0.1-0.4,0.2-0.6c0.1-0.2,0.1-0.4,0.2-0.5c0.1-0.2,0.2-0.3,0.3-0.5
			c0.5-0.6,1-0.9,1.6-0.9c0.6,0,1.2,0.3,1.7,0.8c0.2,0.2,0.3,0.4,0.4,0.6s0.2,0.4,0.3,0.7c0.1,0.2,0.2,0.5,0.2,0.8
			c0.1,0.3,0.1,0.5,0.1,0.8h0.1c0.1,0,0.2,0,0.3,0.1c0.1,0,0.2,0.1,0.3,0.2c0.1,0.1,0.1,0.2,0.2,0.3c0,0.1,0.1,0.2,0.1,0.4
			c0,0.1,0,0.2-0.1,0.3c0,0.1-0.1,0.2-0.2,0.3c-0.1,0.1-0.2,0.1-0.3,0.2c-0.1,0-0.2,0.1-0.3,0.1h-0.2c-0.1,0.6-0.4,1.1-0.7,1.5
			c-0.3,0.4-0.7,0.8-1.1,1.2c-0.4,0.3-0.9,0.6-1.5,0.8c-0.5,0.2-1.1,0.4-1.7,0.5L352.8,193.6z M355.6,187.7c-0.1,0-0.2,0-0.3,0.1
			s-0.2,0.2-0.3,0.3c-0.1,0.1-0.2,0.2-0.2,0.4s-0.1,0.3-0.1,0.4c0,0.1,0,0.2,0.1,0.3c0.1,0.1,0.2,0.1,0.3,0.2
			c0.1,0.1,0.2,0.1,0.4,0.1c0.1,0,0.3,0,0.4,0.1c0.1,0,0.1,0,0.2,0c0.1,0,0.2,0,0.3,0c0.1,0,0.2,0,0.3,0c0.1,0,0.2,0,0.2,0
			c0-0.2-0.1-0.4-0.1-0.5c-0.1-0.2-0.1-0.3-0.2-0.5c-0.1-0.1-0.1-0.3-0.2-0.4c-0.1-0.1-0.2-0.2-0.2-0.3c-0.1-0.1-0.1-0.1-0.2-0.2
			C355.7,187.7,355.7,187.7,355.6,187.7z"/>
		<path d="M357.6,190.4c0-0.1,0-0.2,0.1-0.3c0-0.1,0.1-0.2,0.2-0.3c0.1-0.1,0.2-0.1,0.3-0.2c0.1,0,0.2-0.1,0.3-0.1h0.4
			c0.3,0,0.5,0,0.8,0c0.2,0,0.5-0.1,0.7-0.1c0.2-0.1,0.3-0.2,0.5-0.3c0.1-0.1,0.2-0.3,0.2-0.5c0-0.1,0-0.2,0-0.2c0-0.1,0-0.1,0-0.2
			c0-0.1,0-0.2-0.1-0.3c0-0.1-0.1-0.3-0.1-0.5l1.6-0.5c0.1,0.2,0.1,0.4,0.2,0.7c0.1,0.3,0.1,0.6,0.1,1c0,0.1,0,0.2,0,0.3
			c0,0.1,0.1,0.2,0.1,0.3c0,0.1,0.1,0.2,0.2,0.3c0.1,0.1,0.2,0.1,0.3,0.1c0.1,0,0.2,0,0.3,0.1c0.1,0,0.2,0.1,0.3,0.2
			c0.1,0.1,0.1,0.2,0.2,0.3c0,0.1,0.1,0.2,0.1,0.3c0,0.1,0,0.2-0.1,0.3c0,0.1-0.1,0.2-0.2,0.3s-0.2,0.1-0.3,0.2
			c-0.1,0-0.2,0.1-0.3,0.1c-0.4,0-0.7-0.1-0.9-0.2c-0.3-0.1-0.5-0.3-0.7-0.4c-0.2,0.1-0.4,0.2-0.6,0.3c-0.2,0.1-0.5,0.1-0.7,0.2
			c-0.2,0-0.5,0.1-0.8,0.1c-0.3,0-0.5,0-0.8,0h-0.4c-0.1,0-0.2,0-0.3-0.1c-0.1,0-0.2-0.1-0.3-0.2c-0.1-0.1-0.1-0.2-0.2-0.3
			C357.6,190.7,357.6,190.6,357.6,190.4z M361.1,185l-1.1,1.1l-1.1-1.1l1.1-1.1L361.1,185l1.1-1.1l1.1,1.1l-1.1,1.1L361.1,185z"/>
		<path d="M362.4,190.4c0-0.1,0-0.2,0.1-0.4s0.1-0.2,0.2-0.3c0.1-0.1,0.2-0.1,0.3-0.2c0.1,0,0.2-0.1,0.4-0.1h0.3h0.3
			c0.2,0,0.4,0,0.7,0c0.2,0,0.5,0,0.7-0.1c0.2,0,0.4-0.1,0.6-0.1c0.2-0.1,0.3-0.2,0.4-0.3c0.1-0.2,0.2-0.4,0.2-0.6
			c0-0.1,0-0.2,0-0.2c0-0.1,0-0.2,0-0.2c0-0.1-0.1-0.2-0.2-0.3c-0.1-0.1-0.2-0.3-0.3-0.4c-0.1-0.2-0.3-0.3-0.4-0.5
			c-0.2-0.2-0.3-0.4-0.5-0.5c-0.2-0.2-0.4-0.4-0.6-0.6c-0.2-0.2-0.4-0.4-0.6-0.5l0.2-1.5l4.7-2.1l0.7,1.5l-3.7,1.7
			c0.2,0.1,0.4,0.3,0.6,0.5c0.2,0.2,0.4,0.4,0.6,0.6c0.2,0.2,0.4,0.4,0.5,0.7c0.2,0.2,0.3,0.5,0.4,0.7c0.1,0.2,0.2,0.5,0.3,0.7
			c0.1,0.2,0.1,0.5,0.1,0.7c0,0.3,0,0.5-0.1,0.8c-0.1,0.2-0.2,0.5-0.3,0.6c-0.4,0.7-1,1.1-1.9,1.3l0,0c-0.1,0-0.2,0-0.3,0
			c-0.1,0-0.2,0-0.3,0l-1.8,0c-0.1,0-0.3,0-0.4-0.1c-0.1,0-0.2-0.1-0.3-0.2c-0.1-0.1-0.1-0.2-0.2-0.3
			C362.5,190.7,362.4,190.6,362.4,190.4z"/>
		<path d="M373.3,191.3c-0.5,0-0.9-0.1-1.2-0.2c-0.3-0.1-0.6-0.3-0.9-0.5c-0.1-0.2-0.3-0.3-0.3-0.5c-0.1-0.2-0.1-0.3-0.2-0.5
			c0-0.2-0.1-0.3-0.1-0.5c0-0.1,0-0.3,0-0.4v-0.1c0-0.1,0-0.3,0-0.6c0-0.3,0-0.6,0-0.9s0-0.7,0-1.2c0-0.4,0-0.8,0-1.3
			c0-0.4,0-0.8-0.1-1.2c0-0.4-0.1-0.7-0.1-1l1.7-0.5c0,0.2,0.1,0.5,0.1,0.9c0,0.3,0.1,0.7,0.1,1.1c0,0.4,0,0.7,0,1.1
			c0,0.4,0,0.7,0,1c0,0.3,0,0.6,0,0.8c0,0.3,0,0.5-0.1,0.8c0,0.3,0,0.5,0,0.7c0,0.2,0.1,0.5,0.2,0.7c0,0.1,0.1,0.2,0.1,0.2
			c0.1,0,0.1,0.1,0.2,0.1c0.1,0,0.1,0,0.2,0c0.1,0,0.2,0,0.3,0h0.1c0.1,0,0.2,0,0.3,0.1c0.1,0,0.2,0.1,0.3,0.2
			c0.1,0.1,0.1,0.2,0.2,0.3c0,0.1,0.1,0.2,0.1,0.3c0,0.1,0,0.2-0.1,0.3c0,0.1-0.1,0.2-0.2,0.3c-0.1,0.1-0.2,0.1-0.3,0.2
			C373.5,191.3,373.4,191.3,373.3,191.3z"/>
		<path d="M372.4,190.4c0-0.1,0-0.2,0.1-0.3c0-0.1,0.1-0.2,0.2-0.3c0.1-0.1,0.2-0.1,0.3-0.2c0.1,0,0.2-0.1,0.4-0.1
			c0.1,0,0.3,0,0.5,0c0.2,0,0.4,0,0.7,0c0.2,0,0.5,0,0.7-0.1c0.2,0,0.5-0.1,0.7-0.1c0.2,0,0.4-0.1,0.6-0.1c0.2-0.1,0.3-0.1,0.4-0.2
			c-0.4,0-0.7,0.1-1,0c-0.3,0-0.6,0-0.9-0.1c-0.3-0.1-0.5-0.1-0.6-0.2s-0.3-0.2-0.4-0.3v0c-0.1-0.1-0.2-0.3-0.3-0.5
			c-0.1-0.2-0.1-0.5-0.1-0.8c0-0.2,0-0.3,0-0.5c0.1-0.6,0.3-1.2,0.7-1.6l0,0c0.2-0.3,0.4-0.5,0.7-0.6s0.5-0.2,0.8-0.2
			c0.3,0,0.6,0.1,0.8,0.2c0.3,0.1,0.5,0.3,0.8,0.6c0.2,0.2,0.3,0.4,0.4,0.6c0.1,0.2,0.2,0.5,0.3,0.7c0.1,0.3,0.2,0.5,0.2,0.8
			c0.1,0.3,0.1,0.6,0.1,0.9c0,0.1,0,0.2,0,0.3c0,0.1,0,0.2,0,0.2c0,0.4-0.1,0.7-0.3,1c-0.2,0.3-0.3,0.5-0.6,0.7
			c-0.2,0.2-0.5,0.4-0.8,0.5c-0.3,0.1-0.6,0.2-1,0.3c-0.4,0.1-0.7,0.1-1.1,0.1c-0.4,0-0.8,0-1.2,0h-0.1c-0.1,0-0.2,0-0.3-0.1
			c-0.1,0-0.2-0.1-0.3-0.2c-0.1-0.1-0.1-0.2-0.2-0.3C372.4,190.7,372.4,190.6,372.4,190.4z M375.5,183.6l-1.2-1.2l1.2-1.2l1.2,1.2
			L375.5,183.6z M375.7,186.1c-0.1,0-0.2,0-0.3,0.1c-0.1,0.1-0.2,0.1-0.2,0.2c-0.1,0.1-0.1,0.2-0.2,0.3c0,0.1-0.1,0.2-0.1,0.4
			c0,0.1,0,0.2,0.1,0.3c0,0,0.1,0.1,0.2,0.1s0.2,0.1,0.3,0.1c0.1,0,0.2,0,0.4,0.1c0.1,0,0.2,0,0.4,0c0.1,0,0.2,0,0.3,0
			c0.1,0,0.2,0,0.2,0c0-0.2-0.1-0.3-0.1-0.5c-0.1-0.2-0.1-0.3-0.2-0.5c-0.1-0.1-0.2-0.3-0.3-0.4
			C375.9,186.2,375.8,186.1,375.7,186.1z"/>
	</g>
	<g>
		<path class="st8" d="M315.9,329.6c-0.2-0.1-0.4-0.3-0.6-0.5c-0.3,0.2-0.6,0.4-1,0.5c-0.4,0.1-0.9,0.2-1.4,0.2
			c-0.3,0-0.6,0-0.9-0.1c-0.3,0-0.5-0.1-0.8-0.2s-0.4-0.2-0.6-0.3c-0.2-0.1-0.3-0.3-0.4-0.4c-0.1-0.1-0.1-0.2-0.1-0.4
			c0-0.1,0-0.3,0-0.5c0-0.2,0-0.3,0.1-0.5s0.1-0.4,0.2-0.6l0.7,0.4c0,0.1-0.1,0.2-0.1,0.2s-0.1,0.2-0.1,0.2c0,0.1,0,0.2,0,0.3
			c0,0.1,0,0.2,0,0.3c0.1,0.1,0.1,0.2,0.3,0.2c0.1,0.1,0.3,0.1,0.5,0.1c0.2,0,0.4,0.1,0.6,0.1c0.2,0,0.4,0,0.7,0c0.2,0,0.4,0,0.6,0
			s0.4,0,0.5-0.1s0.3-0.1,0.4-0.1c0.1-0.1,0.2-0.1,0.3-0.2c0.1-0.1,0.2-0.1,0.2-0.2c0.1-0.1,0.1-0.2,0.1-0.3c0-0.1,0.1-0.2,0.1-0.3
			c0-0.1,0-0.2,0.1-0.3l0.8,0.2l-0.1,0.6c0,0.1,0,0.2,0,0.3c0,0.1,0.1,0.1,0.1,0.2c0.1,0.1,0.2,0.1,0.3,0.1c0.1,0,0.2,0,0.3,0
			c0.1,0,0.1,0,0.2,0c0.1,0,0.1,0.1,0.2,0.1c0,0,0.1,0.1,0.1,0.2c0,0.1,0,0.1,0,0.2c0,0.1,0,0.1,0,0.2c0,0.1-0.1,0.1-0.1,0.2
			c0,0-0.1,0.1-0.2,0.1c-0.1,0-0.1,0-0.2,0h0C316.5,329.7,316.2,329.7,315.9,329.6z M313.2,326.6l-0.6,0.6l-0.6-0.6l0.6-0.6
			L313.2,326.6l0.6-0.6l0.6,0.6l-0.6,0.6L313.2,326.6z"/>
		<path class="st8" d="M316.3,329.2c0-0.1,0-0.1,0-0.2c0-0.1,0.1-0.1,0.1-0.2s0.1-0.1,0.2-0.1c0.1,0,0.1,0,0.2,0h0.6
			c0.3,0,0.6,0,0.9-0.1s0.5-0.1,0.8-0.2c0.2-0.1,0.5-0.1,0.7-0.2c0.2-0.1,0.4-0.2,0.6-0.3c-0.1,0-0.3-0.1-0.4-0.1
			c-0.1-0.1-0.3-0.1-0.4-0.2c-0.1-0.1-0.3-0.1-0.4-0.1c-0.1,0-0.3-0.1-0.4-0.1c-0.1,0-0.2,0-0.3,0.1c-0.1,0-0.2,0.1-0.2,0.2
			c-0.1,0.1-0.1,0.1-0.2,0.2c0,0.1-0.1,0.1-0.1,0.1l-0.7-0.4c0.1-0.1,0.2-0.3,0.3-0.4c0.1-0.1,0.2-0.2,0.3-0.3
			c0.1-0.1,0.3-0.2,0.4-0.2c0.1-0.1,0.3-0.1,0.5-0.1c0.1,0,0.2,0,0.4,0c0.1,0,0.2,0.1,0.4,0.1s0.2,0.1,0.3,0.1
			c0.1,0.1,0.2,0.1,0.3,0.2c0.1,0.1,0.2,0.1,0.3,0.1c0.1,0,0.2,0.1,0.3,0.1s0.2,0.1,0.4,0.1c0.1,0,0.3,0,0.4,0l-0.1,0.9l-0.4,0.2
			c-0.2,0.1-0.3,0.2-0.5,0.3c-0.2,0.1-0.3,0.2-0.5,0.3s-0.4,0.2-0.6,0.2s-0.4,0.1-0.6,0.2c-0.2,0.1-0.4,0.1-0.7,0.1s-0.5,0-0.7,0
			h-0.6h0c-0.1,0-0.1,0-0.2,0c-0.1,0-0.1-0.1-0.2-0.1s-0.1-0.1-0.1-0.2C316.3,329.4,316.3,329.3,316.3,329.2z M318.6,326.3l-0.7-0.7
			l0.7-0.7l0.7,0.7L318.6,326.3z"/>
		<path class="st8" d="M322.1,329.2c0-0.2,0-0.4,0-0.5c0-0.2,0-0.3,0-0.5s0-0.3,0-0.4c0-0.3,0-0.5,0-0.8c0-0.2,0-0.4,0-0.6
			c0-0.2,0-0.3,0-0.4c0-0.1,0-0.2,0-0.3c0-0.1,0-0.2,0-0.3c0-0.1,0-0.2,0-0.3l0.9-0.3c0,0.3,0.1,0.5,0.1,0.8c0,0.3,0,0.5,0.1,0.8
			c0,0.3,0,0.5,0,0.7c0,0.2,0,0.4,0,0.5c0,0.1,0,0.3,0,0.4c0,0.2,0,0.3,0,0.5c0,0.2,0,0.3,0,0.5c0,0.2,0,0.3,0,0.5l-0.9,0.1
			C322,329.6,322,329.4,322.1,329.2z"/>
		<path class="st8" d="M324,328.5c0.1,0.1,0.2,0.1,0.3,0.1s0.2,0.1,0.3,0.1c0.1,0,0.2,0,0.3,0c0,0,0.1,0,0.2,0s0.2,0,0.2,0
			c0.1,0,0.1-0.1,0.2-0.1c0.1,0,0.1-0.1,0.1-0.2c0-0.1,0-0.2-0.1-0.3c0-0.1-0.1-0.2-0.2-0.3s-0.2-0.2-0.3-0.3
			c-0.1-0.1-0.2-0.2-0.3-0.3c-0.1-0.1-0.2-0.2-0.3-0.3s-0.2-0.2-0.3-0.2l0.5-0.8c0.2,0.1,0.4,0.3,0.6,0.5c0.2,0.2,0.4,0.3,0.5,0.5
			s0.3,0.4,0.4,0.6c0.1,0.2,0.2,0.4,0.3,0.6c0,0.1,0,0.1,0,0.2c0,0.1,0,0.1,0,0.2c0,0.2,0,0.4-0.1,0.5s-0.2,0.3-0.3,0.4
			c-0.1,0.1-0.3,0.2-0.5,0.3c-0.2,0.1-0.4,0.1-0.6,0.1c0,0,0,0,0,0c0,0,0,0,0,0c-0.1,0-0.3,0-0.4,0s-0.3-0.1-0.4-0.1
			c-0.1,0-0.3-0.1-0.4-0.2c-0.1-0.1-0.3-0.1-0.4-0.2l0.4-0.9C323.7,328.4,323.8,328.4,324,328.5z"/>
		<path class="st8" d="M329.1,329.7c0,0-0.1,0-0.2,0c-0.1,0-0.2,0-0.3-0.1c0,0.2-0.1,0.5-0.2,0.7c-0.1,0.2-0.3,0.4-0.5,0.6
			c-0.2,0.2-0.4,0.4-0.6,0.5s-0.5,0.3-0.7,0.4l-0.5-0.8c0.1-0.1,0.3-0.2,0.4-0.2c0.1-0.1,0.3-0.2,0.4-0.3c0.1-0.1,0.3-0.2,0.4-0.3
			c0.1-0.1,0.2-0.2,0.3-0.3c0.1-0.1,0.1-0.2,0.2-0.3c0-0.1,0.1-0.2,0.1-0.4c0,0,0,0,0,0c0,0,0,0,0,0c0,0,0,0,0,0s0,0,0,0v0
			c0-0.1,0-0.2-0.1-0.3c0-0.1-0.1-0.2-0.1-0.3s-0.1-0.2-0.1-0.3c-0.1-0.1-0.1-0.3-0.2-0.4l0.9-0.4c0.1,0.2,0.2,0.4,0.2,0.6
			c0.1,0.2,0.1,0.3,0.2,0.4c0.1,0.1,0.1,0.2,0.2,0.2s0.1,0.1,0.2,0.1h0c0.1,0,0.1,0,0.2,0c0.1,0,0.1,0.1,0.2,0.1s0.1,0.1,0.1,0.2
			c0,0.1,0,0.1,0,0.2c0,0.1,0,0.1,0,0.2c0,0.1-0.1,0.1-0.1,0.2s-0.1,0.1-0.2,0.1C329.2,329.7,329.1,329.7,329.1,329.7z"/>
		<path class="st8" d="M328.6,329.2c0-0.1,0-0.1,0-0.2c0-0.1,0.1-0.1,0.1-0.2s0.1-0.1,0.2-0.1c0.1,0,0.1,0,0.2,0h0.3h0.1
			c0.1,0,0.2,0,0.3,0s0.2,0,0.3,0c0.1,0,0.2,0,0.3-0.1c0.1,0,0.1-0.1,0.2-0.1c0,0,0-0.1,0-0.1c0-0.1,0-0.2-0.1-0.3
			c0-0.1-0.1-0.2-0.1-0.4c-0.1-0.1-0.1-0.2-0.2-0.4c-0.1-0.1-0.1-0.2-0.1-0.3l0.9-0.4c0.1,0.1,0.1,0.2,0.2,0.4
			c0.1,0.1,0.1,0.3,0.2,0.5s0.1,0.3,0.1,0.5s0,0.3,0,0.4c0,0.2,0,0.4-0.1,0.6c-0.2,0.4-0.5,0.6-0.9,0.7c-0.1,0-0.1,0-0.2,0
			c-0.1,0-0.2,0-0.3,0c-0.1,0-0.2,0-0.3,0s-0.1,0-0.2,0h-0.4h0c-0.1,0-0.1,0-0.2,0c-0.1,0-0.1-0.1-0.2-0.1c0,0-0.1-0.1-0.1-0.2
			C328.6,329.4,328.6,329.3,328.6,329.2z M329.7,331.2l-0.6-0.6l0.6-0.6l0.6,0.6l0.6-0.6l0.6,0.6l-0.6,0.6l-0.6-0.6L329.7,331.2z
			 M330.3,332.1l-0.5-0.5l0.5-0.5l0.5,0.5L330.3,332.1z"/>
	</g>
</g>
<g id="freepik--Character--inject-31">
	<path class="st3" d="M434.5,462.8c0,4-17.8,7.2-39.7,7.2s-39.8-3.2-39.8-7.2s17.8-7.2,39.7-7.2S434.5,458.8,434.5,462.8z"/>
	<path class="st7" d="M370.2,278.5c0,0-4.3,1.6-5.6,7.6s-4.1,24.2-5.6,32.8s-9.4,36.4-9.4,36.4l4.1,2.8c0,0,10.2-14.8,13-21.8
		s5.6-11.8,6-17.1s-0.3-34.8-0.3-37S371.4,278.2,370.2,278.5z"/>
	<path class="st4" d="M374.1,453.1c0,0-10.6,6.8-11.8,9.2s1.1,3.1,7,2.3s10-3.9,12.8-5.5s4.1-1.7,3.2-5.3S374.1,453.1,374.1,453.1z"
		/>
	<path class="st4" d="M415.4,454.1c0,0,11.6,7.9,11,9.6s-4.1,2.5-10.3,0.5s-7.5-3.6-10-5.8s-1.6-4.8-1.6-6.7
		S415.4,454.1,415.4,454.1z"/>
	<path class="st5" d="M368.6,332c0,0-2.4,21.1-2.7,38s7.5,81.1,7.5,81.8v2c2,0.9,4.1,1.4,6.3,1.6c2.3,0.1,4.5,0,6.8-0.3
		c0,0,0-11.9,0.3-21.1s1.7-51.3,1.7-51.3l0.4-18.2l2.7,1.7l12.6,89.1l11.2-1.2c0,0,1.3-59.3,1.1-75.6s-3.5-45.1-3.5-45.1L368.6,332z
		"/>
	<path class="st7" d="M389.6,272.2c0,0-17.8,5.5-19.4,6.3s-2.7,5.1-2.7,10.4s2,31.8,1.7,35s-1.9,7.2-0.5,9.5s19,3.7,28.5,3.3
		s14.8,0.5,16.2-2.1s2.1-35.7,3.5-43.3s2.3-11.6-0.4-13.8s-16.8-4.7-20.3-5.5L389.6,272.2z"/>
	<path class="st4" d="M389,268.9c0,0-3,1-3.9,3.2s-3.9,13.2-2.9,13.7s9.4-3.5,10.6-3.2s6.3,6.9,7.9,6s5.1-10.3,3.8-15.1
		S390.3,267.6,389,268.9z"/>
	<path class="st9" d="M387.4,265.8c0,0-0.1,4.9-0.1,7.4s2.1,11.4,4,11.1s9.6-9.1,10.9-11.4s1.5-7.1,1.5-7.1s-5.5,3.9-9.7,2.7
		C391.7,267.8,389.5,266.9,387.4,265.8z"/>
	<path class="st5" d="M394,268.4c-2.3-0.6-4.5-1.5-6.6-2.6c0,0,0,1.9-0.1,4c0.6,1.3,1.2,2.4,1.6,3.2c1.1,2.5,4,3.8,6.6,2.8
		c2.9-1.3,5.5-3.2,7.6-5.6c0.3-1.5,0.5-2.9,0.6-4.4C403.7,265.8,398.2,269.6,394,268.4z"/>
	<path class="st9" d="M385.3,251.5c0,0-0.5-3.6-2.2-2.1s-1.4,5.1-0.6,6.8s1.7,1.5,1.9,1.5S385.3,251.5,385.3,251.5z"/>
	<path class="st5" d="M408.6,254.9c0.2-0.4,2.9-9.4,3.1-14.3s-6.9-9.4-11.9-10.4s-12.4,0.3-14,3.1s-1.8,14-1.8,15.9s1.5,2.2,1.8,1.7
		s1.5-11.4,2.1-12.2s12.3-0.4,14.1,0.1s2.8,2.4,2.5,5.2s0.1,2.6,0.8,4.2s0.7,2.2,0.7,4.4S407,257.4,408.6,254.9z"/>
	<path class="st9" d="M386.9,238.4c-1.2,5.3-2.1,10.8-2.6,16.2c-0.4,6.5,3.2,13.2,4.6,15.9s4.1,3.7,6.6,2.8c3.5-1.5,6.5-4,8.8-7
		c2.7-3.5,4.1-11.9,4.1-11.9s-1.1,0.6-1.2-0.4s0.7-4.2-0.1-6.3s-2.3-2.6-1.4-4.7c0.6-1.1,1-2.4,1.3-3.6c0-0.4-3.6-2.6-10.3-3.1
		S387.3,236.6,386.9,238.4z"/>
	<path class="st10" d="M387.6,244.3c0,0,2-1.7,4.7,0.3"/>
	<path class="st10" d="M397.5,245.1c0,0,4.7-1.9,6.5,1.4"/>
	<path class="st9" d="M407.7,255.5c0,0,1.5-3.3,3.6-3.4s1.8,4-0.1,6.7s-4.8,3.8-4.9,1.8"/>
	<path class="st10" d="M393.4,249.6c0,0-2.4,6.9-1.9,7.9s2.5,2,4.9,0.9"/>
	<path class="st10" d="M394.4,261.6c2.1,0.7,4.5,0.3,6.3-1.1"/>
	<path class="st11" d="M391,249.8c0,0.8-0.3,1.4-0.6,1.4s-0.6-0.6-0.6-1.4s0.3-1.4,0.6-1.4S391,249,391,249.8z"/>
	<ellipse class="st11" cx="399.5" cy="250.8" rx="0.6" ry="1.4"/>
	<path class="st10" d="M393.5,249.4c0,2.3-1.9,4.2-4.2,4.2s-4.2-1.9-4.2-4.2c0-2.3,1.9-4.2,4.2-4.2l0,0
		C391.6,245.2,393.5,247.1,393.5,249.4z"/>
	<path class="st10" d="M404.4,250.3c0,2.4-2,4.4-4.4,4.4c-2.4,0-4.4-2-4.4-4.4c0-2.4,2-4.4,4.4-4.4
		C402.4,245.9,404.4,247.8,404.4,250.3C404.4,250.3,404.4,250.3,404.4,250.3z"/>
	<path class="st10" d="M393.5,248.6c0.7-0.3,1.5-0.2,2,0.4"/>
	<line class="st10" x1="404.3" y1="250.7" x2="409.5" y2="252.9"/>
	<line class="st10" x1="350.7" y1="352.2" x2="356.3" y2="354.4"/>
	<path class="st9" d="M345.5,369.3c0,0,0.8,4.6,1.3,4.9s0.7-2.3,0.5-3.8l-0.2-1.6c0,0,0.9,4.1,1.7,4.5s0.4-1.5,0.1-2.4l-0.2-0.9
		c0,0,2.1,2.3,2.3,1.7s-1.3-3.3-1.3-3.5c-0.3-1-0.6-2.1-0.8-3.2c-0.1-0.9-1.3-4.3-2.5-2.1S345.5,369.3,345.5,369.3z"/>
	<path class="st9" d="M349.6,355.2c0,0-4,6.4-5.1,8.6s-1.9,10.2-0.9,10.7s1.2-1.4,1.4-2.8c0.4-1.6,1-3.2,1.7-4.6c0,0-0.6,5.1,0.2,5
		s1.5-4.8,2-6s3.8-2.9,4.8-8L349.6,355.2z"/>
	<path class="st4" d="M346.7,367.1c0,0,0-0.7,0.5-3.2"/>
	<path class="st7" d="M415.9,277.3c3,2.3,5.3,5.4,6.7,9c2.5,6.3,11.2,33.7,11.5,34.2s0,5.9-4.3,7.6s-6.3-2-8.8-6.3
		s-8.4-23.3-8.4-23.3"/>
	<path class="st7" d="M426.9,312.7l20.8-10.2l3.6,4.1c0,0-15.3,18.6-18.6,20.8s-7.5,1.6-9.1-2"/>
	<line class="st10" x1="445.4" y1="304" x2="449.3" y2="308.7"/>
	<path class="st9" d="M447.6,302.5c0,0,4.5-7.1,5.9-7.6s5.1-1.3,7.2-2.9s3.3-1.2,2.1,0.5s-2.5,2-3.7,2.5c-0.6,0.2-1.2,0.6-1.7,0.9
		c0,0,3.3,0.1,5.5,0.3c1.3,0.1,2.6,0,3.9-0.3c0,0,5.5-2.4,4.1,0.5s-1.2,4.8-6.5,6.4c-3.5,1-7.1,1.5-10.7,1.5l-2.4,2.3L447.6,302.5z"
		/>
	<path class="st9" d="M468.6,300.9c1.7-0.6,3.1-2,3.6-3.7c0.9-3,0.4-3.1-0.8-2c-1.2,1.2-2.1,2.6-2.8,4.1
		C468,300.7,468.6,300.9,468.6,300.9z"/>
	<path class="st9" d="M467.4,301.1c0,0,1.6,1.1,2.8-2.1s1.1-5.8,0-5.2s-1.3,0.7-2.7,3.5s-2.5,4-1.7,4.3
		C466.4,301.6,467,301.4,467.4,301.1z"/>
	<path class="st9" d="M452.1,302.3c0,0,2-3.4,4.3-3.4c2.8,0.2,5.5,0.6,8.3,1.1c0,0,4.4-6.4,5.4-5.5s-1.5,5.4-2.5,6.5
		s-1.2,1.3-2.1,1.6"/>
	<line class="st12" x1="388.9" y1="364.5" x2="382.8" y2="361.5"/>
</g>
</svg>
